<svg id="Capa_1" enable-background="new 0 0 512.204 512.204" height="512" viewBox="0 0 512.204 512.204" width="512" xmlns="http://www.w3.org/2000/svg"><g><g><path d="m211.037 194.251c4.142 0 7.5-3.358 7.5-7.5v-13.576c0-4.142-3.358-7.5-7.5-7.5s-7.5 3.358-7.5 7.5v13.576c0 4.142 3.358 7.5 7.5 7.5z"/><path d="m301.166 194.251c4.142 0 7.5-3.358 7.5-7.5v-13.576c0-4.142-3.358-7.5-7.5-7.5s-7.5 3.358-7.5 7.5v13.576c0 4.142 3.358 7.5 7.5 7.5z"/><path d="m452.259 489.527c-.824-17.271-4.629-34.229-11.309-50.402-1.582-3.828-5.965-5.651-9.795-4.069-3.828 1.582-5.65 5.967-4.069 9.795 6.02 14.574 9.448 29.846 10.19 45.39.111 2.321.162 4.647.154 6.962h-362.656c-.008-2.314.043-4.641.154-6.962 1.811-37.958 20.054-74.398 50.051-99.976 26.86-22.903 55.653-35.647 72.438-41.746 2.952 4.048 6.714 7.774 11.219 11.022 3.36 2.423 8.048 1.662 10.47-1.698s1.662-8.048-1.698-10.47c-4.533-3.268-14.807-12.289-12.299-25.443.322-1.689.912-4.201 1.899-6.929 15.378 6.547 32.038 10.001 49.095 10.001 17.155 0 33.782-3.432 49.108-9.958.982 2.711 1.566 5.204 1.886 6.885 1.681 8.816-2.472 15.751-6.252 20.017-7.697 8.686-20.404 14.009-31.62 13.247-.169-.011-.339-.017-.508-.017h-21.949c-4.142 0-7.5 3.358-7.5 7.5s3.358 7.5 7.5 7.5c0 0 23.634.089 24.605.089 14.944 0 30.625-7.004 40.698-18.371.978-1.104 1.882-2.238 2.726-3.393 16.761 6.08 45.504 18.803 72.43 41.763 8.859 7.555 16.789 16.125 23.566 25.473 2.432 3.353 7.121 4.101 10.475 1.669 3.353-2.432 4.101-7.121 1.669-10.475-7.475-10.309-16.215-19.756-25.978-28.081-28.037-23.907-57.511-37.299-75.632-43.975 1.317-5.134 1.516-10.453.505-15.756-.736-3.862-1.796-7.479-3.138-10.813 9.449-5.463 18.247-12.201 26.168-20.137 20.428-20.466 33.256-47.535 36.124-76.219.096-.952.177-1.908.251-2.867 17.743-2.151 31.537-17.296 31.537-35.659 0-18.142-13.537-33.173-31.039-35.545l.159-84.118c0-12.335 6.116-24.641 11.246-32.792 2.912-4.628 2.832-10.333-.21-14.889-3.032-4.542-8.253-6.797-13.622-5.883-13.404 2.277-28.566 1.35-28.715 1.341-.161-.01-.321-.016-.482-.016h-93.911c-38.479-1.008-65.493 5.987-80.29 20.769-7.897 7.89-10.548 16.334-11.365 22.15-25.652 3.952-33.649 25.253-34.223 36.616-.007.126-.01.252-.01.378l.131 56.448c-17.489 2.384-31.013 17.413-31.013 35.594 0 18.314 13.795 33.456 31.537 35.608.074.957.155 1.912.251 2.862 3.084 30.847 17.44 59.375 40.422 80.329 6.761 6.165 14.111 11.514 21.904 16.007-1.348 3.346-2.433 6.957-3.172 10.835-1.013 5.311-.806 10.634.51 15.753-18.122 6.676-47.601 20.071-75.638 43.978-33.137 28.255-53.294 68.595-55.301 110.675-.25 5.226-.227 10.477.068 15.606.228 3.969 3.513 7.07 7.488 7.07h377.203c3.975 0 7.26-3.102 7.488-7.07.296-5.126.319-10.377.069-15.603zm-70.555-336.401c9.198 2.183 16.068 10.454 16.068 20.355 0 9.883-6.909 18.168-16.145 20.321zm-267.272 20.302c0-9.848 6.861-18.107 16.048-20.296l.095 40.67c-9.236-2.156-16.143-10.447-16.143-20.374zm30.881-91.764c.148-2.086 2.149-21.414 25.185-22.779 5.016-.297 8.846-4.468 8.72-9.497-.068-2.696.506-9.699 7.295-16.481 8.103-8.095 26.724-17.515 69.392-16.383.066.001.132.002.198.002h93.78c2.093.122 15.615.798 29.058-1.092-7.998 13.405-12.048 26.288-12.048 38.331v80.588c-149.824 3.009-173.057-37.155-174.223-39.398-1.013-3.086-3.816-4.962-7.097-4.949-3.301.02-6.128 2.408-7.071 5.571-6.686 22.445-23.005 32.149-33.188 36.132v-50.045zm0 65.879c10.36-3.124 30.834-11.983 42.568-35.091 5.199 4.828 13.166 10.507 25.248 15.919 31.375 14.054 77.614 21.149 137.667 21.149 5.168 0 10.448-.057 15.821-.163v26.136c-2.343 2.984-8.08 9.608-17.822 16.813-12.12 8.964-33.111 20.688-64.283 25.638-18.852 2.993-37.97 2.993-56.82 0-53.04-8.422-77.485-36.5-82.379-42.811zm36.434 133.653c-20.243-18.457-32.887-43.578-35.603-70.739-.37-3.692-.558-7.457-.558-11.189v-2.086c13.99 12.498 39.398 29.17 79.753 35.578 20.412 3.241 41.112 3.241 61.525 0 40.354-6.408 65.763-23.08 79.752-35.578v2.086c0 3.732-.188 7.497-.559 11.191-2.524 25.255-13.823 49.091-31.814 67.117-20.873 20.912-48.624 32.428-78.142 32.428-27.572 0-53.978-10.231-74.354-28.808z"/></g></g></svg>