<svg id="Capa_1" enable-background="new 0 0 512 512" height="512" viewBox="0 0 512 512" width="512" xmlns="http://www.w3.org/2000/svg"><g><g><path d="m211.338 178.294c-4.141 0-7.498 3.357-7.498 7.498v13.43c0 4.141 3.357 7.498 7.498 7.498s7.498-3.357 7.498-7.498v-13.43c0-4.142-3.357-7.498-7.498-7.498z"/><path d="m300.661 178.294c-4.141 0-7.498 3.357-7.498 7.498v13.43c0 4.141 3.357 7.498 7.498 7.498s7.498-3.357 7.498-7.498v-13.43c0-4.142-3.357-7.498-7.498-7.498z"/><path d="m441.559 490.395c-1.839-39.905-20.903-78.157-52.304-104.948-18.84-16.074-38.552-27.169-54.512-34.505-.086-.043-.163-.099-.251-.139-13.561-6.214-24.44-9.712-29.718-11.243-1.607-.466-3.352-.939-5.229-1.239-3.713-.594-6.271-3.837-7.648-9.623 17.411-5.602 33.364-15.293 46.668-28.598 19.005-19.005 30.941-44.144 33.609-70.783.281-2.796.459-5.633.539-8.468 16.318-2.361 28.896-16.435 28.896-33.397 0-16.942-12.55-31.003-28.841-33.389 0 0 .089-51.488.121-51.696l5.072-33.723c2.643-14.52-3.324-29.395-15.225-37.923-9.799-7.022-21.331-12.891-35.254-17.938-42.414-15.378-85.84-16.89-129.072-4.488-20.028 5.746-36.104 13.081-49.146 22.428-11.901 8.53-17.867 23.404-15.225 37.924l5.072 33.703c.037.248.149 51.711.149 51.711-16.305 2.373-28.869 16.441-28.869 33.393 0 16.961 12.579 31.034 28.896 33.396.08 2.835.257 5.671.539 8.464 2.87 28.648 16.226 55.142 37.608 74.6 12.431 11.313 26.988 19.684 42.678 24.745-1.374 5.811-3.935 9.066-7.657 9.662-1.875.3-3.62.773-5.229 1.24-5.278 1.532-16.157 5.029-29.717 11.243-.941.431-1.934.934-2.471 1.178-15.535 7.326-34.284 18.112-52.246 33.428-31.362 26.74-50.438 64.92-52.339 104.75-.236 4.945-.214 9.914.064 14.773.228 3.968 3.512 7.068 7.486 7.068h355.995c3.974 0 7.258-3.101 7.486-7.068.273-4.782.299-9.673.075-14.538zm-68.791-321.026c7.965 2.165 13.844 9.444 13.844 18.084 0 8.641-5.88 15.919-13.844 18.084zm-233.508 28.182c-.004.099-.024.194-.024.293v7.695c-7.967-2.163-13.849-9.444-13.849-18.086 0-8.651 5.894-15.937 13.872-18.092zm157.916 155.576c1.011.162 2.098.45 3.419.833 4.272 1.24 12.53 3.88 23.03 8.418l-1.511 30.48c-.191 3.861-2.432 7.063-5.994 8.567-3.563 1.503-7.42.874-10.319-1.684l-39.84-35.137 15.408-22.25c4.704 7.655 11.353 10.062 15.807 10.773zm-20.534 40.894-14.334 6.811c-4.01 1.905-8.607 1.905-12.615 0l-14.334-6.811 20.641-18.205zm-33.868-60.472c4.368.495 8.782.75 13.226.75 4.451 0 8.863-.256 13.222-.744l-13.222 19.093zm114.998-138.176c-5.198 6.595-27.501 31.244-75.553 38.86-17.398 2.757-35.041 2.757-52.439 0-47.62-7.547-70.229-32.234-75.525-38.851v-68.881c6.234 6.413 14.896 13.173 26.847 18.891 3.737 1.79 8.213.208 9.999-3.527 1.788-3.735.208-8.213-3.527-9.999-15.351-7.346-24.023-16.41-28.735-23.134l194.239.018c-2.724 3.877-6.728 8.513-12.488 13.105-18.962 15.12-48.204 22.918-84.522 22.583-.048-.001-.095-.001-.143 0-13.516.126-26.121-.854-37.451-2.92-4.072-.745-7.979 1.957-8.722 6.031s1.957 7.979 6.031 8.722c12.243 2.232 25.768 3.293 40.214 3.164.83.007 1.639.011 2.457.011 55.173-.003 84.314-17.416 99.316-32.862v68.789zm-208.922-129.078c-.013-.085-.027-.169-.042-.253-1.647-8.869 1.962-17.947 9.193-23.13 11.623-8.331 26.193-14.938 44.544-20.203 40.131-11.511 80.445-10.107 119.825 4.172 12.616 4.575 22.962 9.818 31.63 16.03 7.23 5.182 10.838 14.261 9.192 23.13-.016.084-.03.169-.042.254l-4.126 27.437-206.046-.002zm38.676 226.528c-18.638-16.962-30.28-40.048-32.781-65.008-.341-3.39-.514-6.849-.514-10.281v-.698c13.201 11.509 36.59 26.406 73.201 32.209 18.955 3.003 38.178 3.003 57.132 0 36.613-5.803 60.002-20.7 73.201-32.209v.698c0 3.432-.173 6.891-.514 10.284-2.324 23.208-12.728 45.113-29.293 61.677-19.221 19.221-44.778 29.806-71.962 29.806-25.389.001-49.706-9.403-68.47-26.478zm23.877 61.138c1.323-.384 2.41-.672 3.42-.834 4.454-.713 11.102-3.118 15.808-10.772l15.408 22.25-39.84 35.137c-2.899 2.557-6.757 3.187-10.319 1.684s-5.804-4.706-5.994-8.567l-1.511-30.48c10.499-4.538 18.756-7.177 23.028-8.418zm3.519 130.973 6.171 12.07h-135.807c0-2.039.048-4.087.146-6.13 1.704-35.708 18.867-69.99 47.089-94.055 13.945-11.891 28.381-20.852 41.185-27.472l1.202 24.255c.477 9.609 6.278 17.901 15.142 21.642 3.153 1.331 6.448 1.981 9.712 1.981 5.908 0 11.708-2.135 16.357-6.234l7.005-6.178 5.766 2.739-14.64 72.486c-.337 1.66-.099 3.386.672 4.896zm75.984 12.07 6.171-12.07c.772-1.51 1.01-3.236.674-4.898l-3.996-19.782c-.82-4.059-4.77-6.684-8.834-5.866-4.059.82-6.685 4.775-5.866 8.834l3.477 17.216-8.47 16.565h-36.128l-8.47-16.565 13.383-66.254.409.194c4.049 1.924 8.395 2.885 12.743 2.885 4.347 0 8.694-.962 12.743-2.886l.408-.194 3.038 15.043c.82 4.059 4.772 6.684 8.834 5.866 4.059-.82 6.685-4.775 5.866-8.834l-3.778-18.707 5.766-2.739 7.005 6.178c4.649 4.1 10.448 6.234 16.357 6.234 3.262 0 6.558-.651 9.712-1.981 8.864-3.74 14.666-12.033 15.142-21.642l1.203-24.264c12.815 6.627 27.27 15.61 41.228 27.518 28.257 24.108 45.407 58.454 47.056 94.23.091 1.973.136 3.949.135 5.919z"/></g></g></svg>